<svg width="150" height="150" viewBox="0 0 150 150" fill="none" xmlns="http://www.w3.org/2000/svg">
<path d="M0 75C0 60.1664 4.39867 45.6659 12.6398 33.3322C20.8809 20.9986 32.5943 11.3856 46.2987 5.70903C60.0032 0.0324554 75.0832 -1.45279 89.6318 1.4411C104.18 4.33499 117.544 11.4781 128.033 21.967C138.522 32.4559 145.665 45.8196 148.559 60.3682C151.453 74.9168 149.968 89.9968 144.291 103.701C138.614 117.406 129.001 129.119 116.668 137.36C104.334 145.601 89.8336 150 75 150V138.75C87.6086 138.75 99.934 135.011 110.418 128.006C120.901 121.001 129.072 111.045 133.897 99.3961C138.722 87.7473 139.985 74.9293 137.525 62.563C135.065 50.1967 128.994 38.8375 120.078 29.9219C111.162 21.0063 99.8033 14.9348 87.437 12.4749C75.0707 10.0151 62.2527 11.2776 50.6039 16.1027C38.9551 20.9278 28.9987 29.0988 21.9938 39.5824C14.9889 50.066 11.25 62.3914 11.25 75H0Z" fill="#010740"/>
<path d="M75.9239 139.924C63.0681 139.924 50.501 136.112 39.8118 128.969C29.1226 121.827 20.7914 111.676 15.8717 99.7983C10.952 87.9211 9.66483 74.8518 12.1729 62.243C14.6809 49.6343 20.8716 38.0524 29.962 28.9619C39.0524 19.8715 50.6343 13.6809 63.243 11.1728C75.8518 8.66481 88.9211 9.95202 100.798 14.8717C112.676 19.7914 122.827 28.1226 129.969 38.8118C137.112 49.501 140.924 62.0681 140.924 74.9239H129.224C129.224 64.3821 126.098 54.0771 120.241 45.312C114.385 36.5469 106.06 29.7153 96.3209 25.6811C86.5816 21.647 75.8648 20.5914 65.5256 22.648C55.1864 24.7046 45.6893 29.781 38.2351 37.2351C30.781 44.6892 25.7046 54.1864 23.648 64.5256C21.5915 74.8648 22.647 85.5816 26.6811 95.3209C30.7153 105.06 37.5469 113.385 46.312 119.241C55.0771 125.098 65.3822 128.224 75.9239 128.224L75.9239 139.924Z" fill="#0D9488"/>
<path d="M82.3537 54L97.5297 54.4979L82.3537 69.149V54ZM81.2513 54.818V69.9136H67.1433C71.9542 64.9915 76.5677 59.8758 81.2513 54.818ZM96.7201 56.8627L98.6666 57.5384L91.6385 61.7522L96.7201 56.8627ZM58.651 58.5341H61.7344L68.9176 66.4641L65.5758 69.9136H58.651C58.6515 66.1179 58.651 62.3277 58.651 58.5341ZM57.5485 59.2275V62.5169H54L57.5485 59.2275ZM59.4262 71.0515H80.9929L74.981 87.6408L59.4262 71.0515ZM81.2513 73.6119V96.8332L74.2231 92.9571C76.5665 86.5079 78.9067 80.0626 81.2513 73.6119Z" fill="#0D9488"/>
</svg>
