<svg width="84" height="80" viewBox="0 0 84 80" fill="none" xmlns="http://www.w3.org/2000/svg">
<path d="M52.8988 6.10352e-05L81.2122 0.920293L52.8988 27.9992V6.10352e-05ZM50.842 1.51189V29.4124H24.521C33.4967 20.3151 42.104 10.86 50.842 1.51189ZM79.7017 5.29105L83.3333 6.53985L70.2212 14.3282L79.7017 5.29105ZM8.67719 8.38019H14.4299L27.8314 23.037L21.5966 29.4124H8.67719C8.67812 22.3971 8.67719 15.3919 8.67719 8.38019ZM6.62031 9.66186V15.7415H0L6.62031 9.66186ZM10.1234 31.5156H50.3599L39.1438 62.1768L10.1234 31.5156ZM50.842 36.2478V79.1668L37.7297 72.0028C42.1018 60.083 46.4678 48.1705 50.842 36.2478Z" fill="#0D9488"/>
</svg>
